<?xml version="1.0" encoding="utf-8"?>
<svg version="1.1" xmlns:xlink="http://www.w3.org/1999/xlink" width="20px" height="20px" xmlns="http://www.w3.org/2000/svg">
  <g transform="matrix(1 0 0 1 -38 -411 )">
    <path d="M 17.125154894671624 11.42634450506625  C 17.133415943824865 11.447129124447908  17.13754646840149 11.478306053520395  17.13754646840149 11.51987529228371  L 17.13754646840149 19.002338269680436  C 17.13754646840149 19.27253832164198  17.059066501445685 19.506365289685633  16.902106567534076 19.70381917381138  C 16.745146633622472 19.90127305793713  16.559273027674518 20  16.34448574969021 20  L 11.586121437422552 20  L 11.586121437422552 14.01402961808262  L 8.413878562577446 14.01402961808262  L 8.413878562577446 20  L 3.655514250309789 20  C 3.4407269723254856 20  3.2548533663775303 19.90127305793713  3.097893432465923 19.70381917381138  C 2.9409334985543167 19.506365289685633  2.8624535315985127 19.27253832164198  2.8624535315985127 19.002338269680436  L 2.8624535315985127 11.51987529228371  C 2.8624535315985127 11.50948298259288  2.8645187938868237 11.493894518056639  2.868649318463445 11.47310989867498  C 2.8727798430400666 11.452325279293323  2.874845105328377 11.43673681475708  2.874845105328377 11.42634450506625  L 10 4.037412314886984  L 17.125154894671624 11.42634450506625  Z M 19.987608426270135 10.077942322681217  C 19.99586947542338 10.218238503507404  19.96695580338703 10.340348142374642  19.90086741016109 10.444271239282932  L 19.132589838909542 11.597817614964928  C 19.066501445683603 11.691348402182387  18.979760429574558 11.748506105481944  18.872366790582404 11.769290724863602  L 18.83519206939281 11.769290724863602  C 18.72779843040066 11.769290724863602  18.641057414291616 11.732917640945699  18.574969021065677 11.660171473109898  L 10 2.665627435697584  L 1.4250309789343247 11.660171473109898  C 1.325898389095415 11.743309950636526  1.2267657992565058 11.779683034554429  1.127633209417596 11.769290724863602  C 1.020239570425444 11.748506105481944  0.9334985543163983 11.691348402182387  0.8674101610904584 11.597817614964928  L 0.09913258983890955 10.444271239282932  C 0.03304419661296986 10.340348142374642  0.00413052457662126 10.218238503507404  0.012391573729863693 10.077942322681217  C 0.020652622883106216 9.937646141855028  0.06608839322593972 9.825928812678617  0.1486988847583643 9.742790335151987  L 9.058240396530358 0.40530007794232326  C 9.322593969434118 0.1351000259807722  9.636513837257333 0  10 0  C 10.36348616274267 0  10.677406030565884 0.1351000259807722  10.941759603469642 0.40530007794232326  L 13.965303593556381 3.5853468433359303  L 13.965303593556381 0.5455962587685104  C 13.965303593556381 0.4001039230969061  14.002478314745971 0.28059236165237644  14.076827757125155 0.1870615744349191  C 14.151177199504337 0.09353078721745955  14.246179264766624 0.04676539360872978  14.36183395291202 0.04676539360872978  L 16.74101610904585 0.04676539360872978  C 16.856670797191246 0.04676539360872978  16.95167286245353 0.09353078721745955  17.026022304832715 0.1870615744349191  C 17.100371747211895 0.28059236165237644  17.13754646840149 0.4001039230969061  17.13754646840149 0.5455962587685104  L 17.13754646840149 6.905689789555729  L 19.851301115241636 9.742790335151987  C 19.93391160677406 9.825928812678617  19.979347377116895 9.937646141855028  19.987608426270135 10.077942322681217  Z " fill-rule="nonzero" fill="#000000" stroke="none" transform="matrix(1 0 0 1 38 411 )" />
  </g>
</svg>