<?xml version="1.0" encoding="utf-8"?>
<svg version="1.1" xmlns:xlink="http://www.w3.org/1999/xlink" width="20px" height="21px" xmlns="http://www.w3.org/2000/svg">
  <g transform="matrix(1 0 0 1 -38 -534 )">
    <path d="M 7.144886363636363 17.376953125  C 7.230113636363637 17.294921875  7.272727272727273 17.190104166666664  7.272727272727273 17.0625  L 7.272727272727273 7.437499999999999  C 7.272727272727273 7.309895833333334  7.230113636363637 7.205078125000001  7.144886363636363 7.123046875000001  C 7.059659090909091 7.041015625000001  6.950757575757577 7.000000000000001  6.8181818181818175 7.000000000000001  L 5.909090909090909 7.000000000000001  C 5.776515151515152 7.000000000000001  5.667613636363638 7.041015625000001  5.582386363636363 7.123046875000001  C 5.497159090909091 7.205078125000001  5.454545454545454 7.309895833333334  5.454545454545454 7.437499999999999  L 5.454545454545454 17.0625  C 5.454545454545454 17.190104166666664  5.497159090909091 17.294921875  5.582386363636363 17.376953125  C 5.667613636363638 17.458984375  5.776515151515152 17.5  5.909090909090909 17.5  L 6.8181818181818175 17.5  C 6.950757575757577 17.5  7.059659090909091 17.458984375  7.144886363636363 17.376953125  Z M 10.78125 17.376953125  C 10.866477272727273 17.294921875  10.909090909090908 17.190104166666664  10.909090909090908 17.0625  L 10.909090909090908 7.437499999999999  C 10.909090909090908 7.309895833333334  10.866477272727273 7.205078125000001  10.78125 7.123046875000001  C 10.696022727272727 7.041015625000001  10.587121212121213 7.000000000000001  10.454545454545453 7.000000000000001  L 9.545454545454547 7.000000000000001  C 9.412878787878789 7.000000000000001  9.303977272727273 7.041015625000001  9.21875 7.123046875000001  C 9.133522727272727 7.205078125000001  9.09090909090909 7.309895833333334  9.09090909090909 7.437499999999999  L 9.09090909090909 17.0625  C 9.09090909090909 17.190104166666664  9.133522727272727 17.294921875  9.21875 17.376953125  C 9.303977272727273 17.458984375  9.412878787878789 17.5  9.545454545454547 17.5  L 10.454545454545453 17.5  C 10.587121212121213 17.5  10.696022727272727 17.458984375  10.78125 17.376953125  Z M 14.417613636363635 17.376953125  C 14.502840909090908 17.294921875  14.545454545454547 17.190104166666664  14.545454545454547 17.0625  L 14.545454545454547 7.437499999999999  C 14.545454545454547 7.309895833333334  14.502840909090908 7.205078125000001  14.417613636363635 7.123046875000001  C 14.332386363636365 7.041015625000001  14.223484848484848 7.000000000000001  14.090909090909092 7.000000000000001  L 13.181818181818182 7.000000000000001  C 13.049242424242424 7.000000000000001  12.940340909090908 7.041015625000001  12.855113636363635 7.123046875000001  C 12.769886363636365 7.205078125000001  12.727272727272727 7.309895833333334  12.727272727272727 7.437499999999999  L 12.727272727272727 17.0625  C 12.727272727272727 17.190104166666664  12.769886363636365 17.294921875  12.855113636363635 17.376953125  C 12.940340909090908 17.458984375  13.049242424242424 17.5  13.181818181818182 17.5  L 14.090909090909092 17.5  C 14.223484848484848 17.5  14.332386363636365 17.458984375  14.417613636363635 17.376953125  Z M 7.514204545454546 1.9003906249999991  L 6.8181818181818175 3.499999999999999  L 13.181818181818182 3.499999999999999  L 12.5 1.9003906249999991  C 12.433712121212125 1.8183593749999991  12.353219696969697 1.7682291666666656  12.258522727272727 1.7500000000000009  L 7.7556818181818175 1.7500000000000009  C 7.660984848484849 1.7682291666666656  7.580492424242426 1.8183593749999991  7.514204545454546 1.9003906249999991  Z M 19.872159090909093 3.623046874999999  C 19.957386363636363 3.705078124999999  20 3.809895833333332  20 3.9375  L 20 4.812499999999999  C 20 4.940104166666665  19.957386363636363 5.044921875  19.872159090909093 5.126953125  C 19.78693181818182 5.208984375  19.678030303030305 5.25  19.545454545454547 5.25  L 18 5.25  L 18 18.2109375  C 18.18181818181818 18.967447916666664  17.959280303030305 19.621419270833336  17.514204545454547 20.1728515625  C 17.06912878787879 20.724283854166668  16.534090909090907 21  15.909090909090908 21  L 4.090909090909091 21  C 3.4659090909090913 21  2.930871212121213 20.7333984375  2.4857954545454546 20.2001953125  C 2.0407196969696972 19.6669921875  1.8181818181818183 19.022135416666668  2 18.265625  L 2 5.25  L 0.4545454545454546 5.25  C 0.32196969696969696 5.25  0.21306818181818182 5.208984375  0.1278409090909091 5.126953125  C 0.04261363636363636 5.044921875  0 4.940104166666665  0 4.812499999999999  L 0 3.9375  C 0 3.809895833333332  0.04261363636363636 3.705078124999999  0.1278409090909091 3.623046874999999  C 0.21306818181818182 3.541015624999999  0.32196969696969696 3.499999999999999  0.4545454545454546 3.499999999999999  L 4.84375 3.499999999999999  L 5.8380681818181825 1.2167968750000009  C 5.980113636363638 0.8795572916666649  6.235795454545455 0.5924479166666649  6.605113636363637 0.3554687500000008  C 6.974431818181818 0.11848958333333204  7.348484848484849 0  7.727272727272727 0  L 12.272727272727273 0  C 12.651515151515154 0  13.025568181818182 0.11848958333333204  13.394886363636365 0.3554687500000008  C 13.764204545454547 0.5924479166666649  14.019886363636365 0.8795572916666649  14.161931818181818 1.2167968750000009  L 15.15625 3.499999999999999  L 19.545454545454547 3.499999999999999  C 19.678030303030305 3.499999999999999  19.78693181818182 3.541015624999999  19.872159090909093 3.623046874999999  Z " fill-rule="nonzero" fill="#000000" stroke="none" transform="matrix(1 0 0 1 38 534 )" />
  </g>
</svg>