<?xml version="1.0" encoding="utf-8"?>
<svg version="1.1" xmlns:xlink="http://www.w3.org/1999/xlink" width="20px" height="21px" xmlns="http://www.w3.org/2000/svg">
  <g transform="matrix(1 0 0 1 -38 -472 )">
    <path d="M 13.802083333333332 0.7968750000000007  L 19.114583333333332 5.578125  C 19.236111111111114 5.687499999999998  19.35763888888889 5.828124999999999  19.479166666666668 6  L 13.333333333333332 6  L 13.333333333333332 0.46875000000000067  C 13.524305555555555 0.5781249999999991  13.680555555555555 0.6874999999999976  13.802083333333332 0.7968750000000007  Z M 12.03125 7.171874999999999  C 12.274305555555555 7.390624999999998  12.569444444444445 7.499999999999999  12.916666666666668 7.499999999999999  L 20 7.499999999999999  L 20 19.875  C 20 20.1875  19.87847222222222 20.453125  19.635416666666668 20.671875  C 19.392361111111114 20.890625  19.09722222222222 21  18.75 21  L 1.25 21  C 0.9027777777777779 21  0.607638888888889 20.890625  0.36458333333333337 20.671875  C 0.12152777777777776 20.453125  0 20.1875  0 19.875  L 0 1.1250000000000007  C 0 0.8124999999999994  0.12152777777777776 0.5468749999999992  0.36458333333333337 0.328125  C 0.607638888888889 0.10937500000000078  0.9027777777777779 0  1.25 0  L 11.666666666666668 0  L 11.666666666666668 6.375000000000001  C 11.666666666666668 6.687499999999997  11.788194444444445 6.953125  12.03125 7.171874999999999  Z M 14.8828125 16.39453125  C 14.9609375 16.32421875  15 16.234375  15 16.125  L 15 15.375000000000002  C 15 15.265625  14.9609375 15.17578125  14.8828125 15.10546875  C 14.8046875 15.03515625  14.704861111111114 15  14.583333333333332 15  L 5.416666666666666 15  C 5.295138888888889 15  5.195312500000001 15.03515625  5.1171875 15.10546875  C 5.0390625 15.17578125  5 15.265625  5 15.375000000000002  L 5 16.125  C 5 16.234375  5.0390625 16.32421875  5.1171875 16.39453125  C 5.195312500000001 16.46484375  5.295138888888889 16.5  5.416666666666666 16.5  L 14.583333333333332 16.5  C 14.704861111111114 16.5  14.8046875 16.46484375  14.8828125 16.39453125  Z M 14.8828125 13.39453125  C 14.9609375 13.324218750000002  15 13.234374999999998  15 13.125  L 15 12.375  C 15 12.265625  14.9609375 12.175781250000002  14.8828125 12.105468749999998  C 14.8046875 12.03515625  14.704861111111114 12  14.583333333333332 12  L 5.416666666666666 12  C 5.295138888888889 12  5.195312500000001 12.03515625  5.1171875 12.105468749999998  C 5.0390625 12.175781250000002  5 12.265625  5 12.375  L 5 13.125  C 5 13.234374999999998  5.0390625 13.324218750000002  5.1171875 13.39453125  C 5.195312500000001 13.46484375  5.295138888888889 13.499999999999998  5.416666666666666 13.499999999999998  L 14.583333333333332 13.499999999999998  C 14.704861111111114 13.499999999999998  14.8046875 13.46484375  14.8828125 13.39453125  Z M 14.8828125 10.39453125  C 14.9609375 10.32421875  15 10.234375  15 10.124999999999998  L 15 9.375  C 15 9.265624999999998  14.9609375 9.17578125  14.8828125 9.10546875  C 14.8046875 9.03515625  14.704861111111114 9  14.583333333333332 9  L 5.416666666666666 9  C 5.295138888888889 9  5.195312500000001 9.03515625  5.1171875 9.10546875  C 5.0390625 9.17578125  5 9.265624999999998  5 9.375  L 5 10.124999999999998  C 5 10.234375  5.0390625 10.32421875  5.1171875 10.39453125  C 5.195312500000001 10.464843750000002  5.295138888888889 10.5  5.416666666666666 10.5  L 14.583333333333332 10.5  C 14.704861111111114 10.5  14.8046875 10.464843750000002  14.8828125 10.39453125  Z " fill-rule="nonzero" fill="#000000" stroke="none" transform="matrix(1 0 0 1 38 472 )" />
  </g>
</svg>