<?xml version="1.0" encoding="utf-8"?>
<svg version="1.1" xmlns:xlink="http://www.w3.org/1999/xlink" width="20px" height="16px" xmlns="http://www.w3.org/2000/svg">
  <g transform="matrix(1 0 0 1 -38 -297 )">
    <path d="M 9.638671875 11.557291666666668  C 9.879557291666668 11.262152777777775  10 10.89236111111111  10 10.447916666666668  C 10 10.003472222222221  9.970703125 9.59548611111111  9.912109375 9.223958333333332  C 9.853515625 8.852430555555554  9.757486979166668 8.494791666666668  9.6240234375 8.151041666666668  C 9.490559895833334 7.807291666666666  9.293619791666668 7.536458333333334  9.033203125 7.338541666666666  C 8.772786458333336 7.140625  8.457031250000002 7.041666666666666  8.0859375 7.041666666666666  C 8.046875000000002 7.069444444444445  7.949218750000001 7.131944444444445  7.79296875 7.229166666666666  C 7.636718750000001 7.3263888888888875  7.514648437500001 7.401041666666666  7.4267578125 7.453125  C 7.3388671875 7.505208333333334  7.223307291666668 7.565972222222221  7.080078125 7.635416666666666  C 6.936848958333334 7.704861111111111  6.796875 7.755208333333334  6.66015625 7.786458333333334  C 6.5234375 7.817708333333334  6.38671875 7.833333333333334  6.25 7.833333333333334  C 6.11328125 7.833333333333334  5.9765625 7.817708333333334  5.83984375 7.786458333333334  C 5.703125 7.755208333333334  5.563151041666668 7.704861111111111  5.419921875 7.635416666666666  C 5.276692708333334 7.565972222222221  5.1611328125 7.505208333333334  5.0732421875 7.453125  C 4.9853515625 7.401041666666666  4.86328125 7.3263888888888875  4.70703125 7.229166666666666  C 4.55078125 7.131944444444445  4.453125 7.069444444444445  4.4140625 7.041666666666666  C 4.04296875 7.041666666666666  3.727213541666667 7.140625  3.466796875 7.338541666666666  C 3.206380208333334 7.536458333333334  3.009440104166667 7.807291666666666  2.8759765625 8.151041666666668  C 2.742513020833334 8.494791666666668  2.646484375 8.852430555555554  2.587890625 9.223958333333332  C 2.529296875 9.59548611111111  2.5 10.003472222222221  2.5 10.447916666666668  C 2.5 10.89236111111111  2.620442708333334 11.262152777777775  2.861328125 11.557291666666668  C 3.102213541666667 11.852430555555554  3.3984375 12  3.75 12  L 8.75 12  C 9.1015625 12  9.397786458333334 11.852430555555554  9.638671875 11.557291666666668  Z M 7.8173828125 6.703125  C 8.250325520833336 6.241319444444443  8.466796875000002 5.684027777777777  8.466796875 5.03125  C 8.466796875000002 4.378472222222221  8.250325520833336 3.8211805555555554  7.8173828125 3.359375  C 7.384440104166668 2.897569444444443  6.861979166666668 2.666666666666666  6.25 2.666666666666666  C 5.638020833333334 2.666666666666666  5.115559895833334 2.897569444444443  4.6826171875 3.359375  C 4.249674479166667 3.8211805555555554  4.033203125 4.378472222222221  4.033203125 5.03125  C 4.033203125 5.684027777777777  4.249674479166667 6.241319444444443  4.6826171875 6.703125  C 5.115559895833334 7.164930555555555  5.638020833333334 7.395833333333334  6.25 7.395833333333334  C 6.861979166666668 7.395833333333334  7.384440104166668 7.164930555555555  7.8173828125 6.703125  Z M 17.412109375 10.572916666666668  C 17.470703125 10.510416666666668  17.5 10.430555555555554  17.5 10.333333333333332  L 17.5 9.666666666666668  C 17.5 9.569444444444443  17.470703125 9.489583333333332  17.412109375 9.427083333333332  C 17.353515625 9.364583333333332  17.278645833333336 9.333333333333332  17.1875 9.333333333333332  L 11.5625 9.333333333333332  C 11.471354166666668 9.333333333333332  11.396484375 9.364583333333332  11.337890625 9.427083333333332  C 11.279296875 9.489583333333332  11.25 9.569444444444443  11.25 9.666666666666668  L 11.25 10.333333333333332  C 11.25 10.430555555555554  11.279296875 10.510416666666668  11.337890625 10.572916666666668  C 11.396484375 10.635416666666668  11.471354166666668 10.666666666666668  11.5625 10.666666666666668  L 17.1875 10.666666666666668  C 17.278645833333336 10.666666666666668  17.353515625 10.635416666666668  17.412109375 10.572916666666668  Z M 17.3974609375 7.890625  C 17.4658203125 7.817708333333334  17.5 7.729166666666666  17.5 7.625  L 17.5 7.041666666666666  C 17.5 6.9375  17.4658203125 6.848958333333334  17.3974609375 6.776041666666666  C 17.3291015625 6.703125  17.24609375 6.666666666666666  17.1484375 6.666666666666666  L 11.6015625 6.666666666666666  C 11.50390625 6.666666666666666  11.4208984375 6.703125  11.3525390625 6.776041666666666  C 11.2841796875 6.848958333333334  11.25 6.9375  11.25 7.041666666666666  L 11.25 7.625  C 11.25 7.729166666666666  11.2841796875 7.817708333333334  11.3525390625 7.890625  C 11.4208984375 7.963541666666666  11.50390625 8  11.6015625 8  L 17.1484375 8  C 17.24609375 8  17.3291015625 7.963541666666666  17.3974609375 7.890625  Z M 17.412109375 5.239583333333334  C 17.470703125 5.177083333333334  17.5 5.097222222222221  17.5 5  L 17.5 4.333333333333334  C 17.5 4.236111111111109  17.470703125 4.15625  17.412109375 4.09375  C 17.353515625 4.03125  17.278645833333336 4  17.1875 4  L 11.5625 4  C 11.471354166666668 4  11.396484375 4.03125  11.337890625 4.09375  C 11.279296875 4.15625  11.25 4.236111111111109  11.25 4.333333333333334  L 11.25 5  C 11.25 5.097222222222221  11.279296875 5.177083333333334  11.337890625 5.239583333333334  C 11.396484375 5.302083333333334  11.471354166666668 5.333333333333334  11.5625 5.333333333333334  L 17.1875 5.333333333333334  C 17.278645833333336 5.333333333333334  17.353515625 5.302083333333334  17.412109375 5.239583333333334  Z M 19.541015625 0.4895833333333339  C 19.847005208333336 0.8159722222222214  20 1.208333333333334  20 1.666666666666666  L 20 14.333333333333334  C 20 14.791666666666666  19.847005208333336 15.184027777777779  19.541015625 15.510416666666666  C 19.235026041666668 15.836805555555555  18.8671875 16  18.4375 16  L 15 16  L 15 15  C 15 14.902777777777779  14.970703125 14.822916666666666  14.912109375 14.760416666666666  C 14.853515625 14.697916666666666  14.778645833333336 14.666666666666666  14.6875 14.666666666666666  L 14.0625 14.666666666666666  C 13.971354166666668 14.666666666666666  13.896484375 14.697916666666666  13.837890625 14.760416666666666  C 13.779296875 14.822916666666666  13.75 14.902777777777779  13.75 15  L 13.75 16  L 6.25 16  L 6.25 15  C 6.25 14.902777777777779  6.220703125 14.822916666666666  6.162109375 14.760416666666666  C 6.103515625 14.697916666666666  6.028645833333334 14.666666666666666  5.9375 14.666666666666666  L 5.3125 14.666666666666666  C 5.221354166666668 14.666666666666666  5.146484375 14.697916666666666  5.087890625 14.760416666666666  C 5.029296875 14.822916666666666  5 14.902777777777779  5 15  L 5 16  L 1.5625 16  C 1.1328125 16  0.7649739583333335 15.836805555555555  0.458984375 15.510416666666666  C 0.15299479166666666 15.184027777777779  0 14.791666666666666  0 14.333333333333334  L 0 1.666666666666666  C 0 1.208333333333334  0.15299479166666666 0.8159722222222214  0.458984375 0.4895833333333339  C 0.7649739583333335 0.16319444444444287  1.1328125 0  1.5625 0  L 18.4375 0  C 18.8671875 0  19.235026041666668 0.16319444444444287  19.541015625 0.4895833333333339  Z " fill-rule="nonzero" fill="#000000" stroke="none" transform="matrix(1 0 0 1 38 297 )" />
  </g>
</svg>