<?xml version="1.0" encoding="utf-8"?>
<svg version="1.1" xmlns:xlink="http://www.w3.org/1999/xlink" width="21px" height="26px" xmlns="http://www.w3.org/2000/svg">
  <g transform="matrix(1 0 0 1 -38 -134 )">
    <path d="M 20.860546875 18.797526041666664  C 20.953515625 19.649522569444443  21 20.55512152777778  21 21.514322916666668  C 21 22.74435763888889  20.658203125 23.799479166666668  19.974609375 24.6796875  C 19.291015625 25.559895833333332  18.46796875 26  17.505468750000002 26  L 3.49453125 26  C 2.53203125 26  1.7089843750000002 25.559895833333332  1.0253906250000002 24.6796875  C 0.3417968750000001 23.799479166666668  0 22.74435763888889  0 21.514322916666668  C 0 20.55512152777778  0.046484375000000105 19.649522569444443  0.13945312500000012 18.797526041666664  C 0.2324218750000001 17.945529513888886  0.4046875000000001 17.087890625  0.6562500000000001 16.224609375  C 0.9078125000000002 15.361328125  1.2277343750000003 14.622178819444445  1.616015625 14.007161458333336  C 2.0042968750000005 13.39214409722222  2.5183593749999997 12.889973958333332  3.158203125 12.500651041666668  C 3.798046875 12.111328125  4.5335937500000005 11.916666666666668  5.36484375 11.916666666666668  C 6.797656250000001 13.36111111111111  8.509375000000002 14.083333333333336  10.5 14.083333333333336  C 12.490625000000003 14.083333333333336  14.202343750000002 13.36111111111111  15.63515625 11.916666666666668  C 16.466406250000002 11.916666666666668  17.201953125 12.111328125  17.841796875 12.500651041666668  C 18.481640625 12.889973958333332  18.995703125000002 13.39214409722222  19.383984375 14.007161458333336  C 19.772265625000003 14.622178819444445  20.0921875 15.361328125  20.34375 16.224609375  C 20.595312500000002 17.087890625  20.767578125 17.945529513888886  20.860546875 18.797526041666664  Z M 14.954296875 1.904296875  C 16.184765625 3.173828125  16.8 4.705729166666668  16.8 6.5  C 16.8 8.294270833333332  16.184765625 9.826171875  14.954296875 11.095703125  C 13.723828125 12.365234375  12.2390625 13  10.5 13  C 8.760937499999999 13  7.276171875 12.365234375  6.045703125 11.095703125  C 4.815234375 9.826171875  4.2 8.294270833333332  4.2 6.5  C 4.2 4.705729166666668  4.815234375 3.173828125  6.045703125 1.904296875  C 7.276171875 0.634765625  8.760937499999999 0  10.5 0  C 12.2390625 0  13.723828125 0.634765625  14.954296875 1.904296875  Z " fill-rule="nonzero" fill="#000000" stroke="none" transform="matrix(1 0 0 1 38 134 )" />
  </g>
</svg>