<?xml version="1.0" encoding="utf-8"?>
<svg version="1.1" xmlns:xlink="http://www.w3.org/1999/xlink" width="20px" height="21px" xmlns="http://www.w3.org/2000/svg">
  <g transform="matrix(1 0 0 1 -38 -354 )">
    <path d="M 15.769230769230768 11.027343750000002  C 15.769230769230768 11.12890625  15.733173076923077 11.21875  15.661057692307692 11.296875  L 9.507211538461538 17.296875  C 9.427083333333334 17.3671875  9.334935897435898 17.40234375  9.230769230769232 17.40234375  C 9.126602564102566 17.40234375  9.03445512820513 17.3671875  8.954326923076923 17.296875  L 5.492788461538462 13.921875  C 5.420673076923077 13.84375  5.384615384615384 13.753906249999996  5.384615384615384 13.652343750000002  C 5.384615384615384 13.550781250000002  5.420673076923077 13.46484375  5.492788461538462 13.39453125  L 6.045673076923077 12.85546875  C 6.117788461538462 12.78515625  6.205929487179488 12.750000000000002  6.310096153846154 12.750000000000002  C 6.414262820512821 12.750000000000002  6.506410256410256 12.78515625  6.586538461538462 12.85546875  L 9.230769230769232 15.43359375  L 14.567307692307692 10.23046875  C 14.647435897435898 10.16015625  14.739583333333336 10.124999999999998  14.84375 10.124999999999998  C 14.947916666666668 10.124999999999998  15.036057692307692 10.16015625  15.108173076923077 10.23046875  L 15.661057692307692 10.76953125  C 15.733173076923077 10.83984375  15.769230769230768 10.925781249999998  15.769230769230768 11.027343750000002  Z M 1.5384615384615385 7.499999999999999  L 1.5384615384615385 19.5  L 18.461538461538463 19.5  L 18.461538461538463 7.499999999999999  L 1.5384615384615385 7.499999999999999  Z M 6.045673076923077 5.519531249999999  C 6.117788461538462 5.449218749999999  6.153846153846154 5.359374999999998  6.153846153846154 5.25  L 6.153846153846154 1.8750000000000004  C 6.153846153846154 1.7656249999999973  6.117788461538462 1.6757812499999991  6.045673076923077 1.6054687500000009  C 5.9735576923076925 1.5351562500000007  5.881410256410256 1.4999999999999993  5.769230769230768 1.4999999999999993  L 5 1.4999999999999993  C 4.887820512820514 1.4999999999999993  4.7956730769230775 1.5351562500000007  4.7235576923076925 1.6054687500000009  C 4.6514423076923075 1.6757812499999991  4.615384615384616 1.7656249999999973  4.615384615384616 1.8750000000000004  L 4.615384615384616 5.25  C 4.615384615384616 5.359374999999998  4.6514423076923075 5.449218749999999  4.7235576923076925 5.519531249999999  C 4.7956730769230775 5.58984375  4.887820512820514 5.625000000000001  5 5.625000000000001  L 5.769230769230768 5.625000000000001  C 5.881410256410256 5.625000000000001  5.9735576923076925 5.58984375  6.045673076923077 5.519531249999999  Z M 15.276442307692308 5.519531249999999  C 15.348557692307692 5.449218749999999  15.384615384615385 5.359374999999998  15.384615384615385 5.25  L 15.384615384615385 1.8750000000000004  C 15.384615384615385 1.7656249999999973  15.348557692307692 1.6757812499999991  15.276442307692308 1.6054687500000009  C 15.204326923076923 1.5351562500000007  15.112179487179489 1.4999999999999993  15 1.4999999999999993  L 14.230769230769232 1.4999999999999993  C 14.118589743589745 1.4999999999999993  14.026442307692308 1.5351562500000007  13.954326923076923 1.6054687500000009  C 13.882211538461537 1.6757812499999991  13.846153846153847 1.7656249999999973  13.846153846153847 1.8750000000000004  L 13.846153846153847 5.25  C 13.846153846153847 5.359374999999998  13.882211538461537 5.449218749999999  13.954326923076923 5.519531249999999  C 14.026442307692308 5.58984375  14.118589743589745 5.625000000000001  14.230769230769232 5.625000000000001  L 15 5.625000000000001  C 15.112179487179489 5.625000000000001  15.204326923076923 5.58984375  15.276442307692308 5.519531249999999  Z M 19.54326923076923 3.4453125  C 19.847756410256412 3.7421875  20 4.093749999999999  20 4.5  L 20 19.5  C 20 19.90625  19.847756410256412 20.2578125  19.54326923076923 20.5546875  C 19.23878205128205 20.8515625  18.87820512820513 21  18.461538461538463 21  L 1.5384615384615385 21  C 1.121794871794872 21  0.7612179487179488 20.8515625  0.4567307692307692 20.5546875  C 0.15224358974358973 20.2578125  0 19.90625  0 19.5  L 0 4.5  C 0 4.093749999999999  0.15224358974358973 3.7421875  0.4567307692307692 3.4453125  C 0.7612179487179488 3.1484374999999973  1.121794871794872 3.000000000000001  1.5384615384615385 3.000000000000001  L 3.076923076923077 3.000000000000001  L 3.076923076923077 1.8750000000000004  C 3.076923076923077 1.3593750000000009  3.265224358974359 0.9179687499999988  3.641826923076923 0.5507812500000007  C 4.018429487179488 0.18359375000000022  4.471153846153847 0  5 0  L 5.769230769230768 0  C 6.298076923076923 0  6.750801282051283 0.18359375000000022  7.127403846153846 0.5507812500000007  C 7.504006410256411 0.9179687499999988  7.6923076923076925 1.3593750000000009  7.6923076923076925 1.8750000000000004  L 7.6923076923076925 3.000000000000001  L 12.307692307692308 3.000000000000001  L 12.307692307692308 1.8750000000000004  C 12.307692307692308 1.3593750000000009  12.495993589743591 0.9179687499999988  12.872596153846153 0.5507812500000007  C 13.24919871794872 0.18359375000000022  13.701923076923077 0  14.230769230769232 0  L 15 0  C 15.528846153846153 0  15.981570512820513 0.18359375000000022  16.358173076923077 0.5507812500000007  C 16.734775641025642 0.9179687499999988  16.923076923076923 1.3593750000000009  16.923076923076923 1.8750000000000004  L 16.923076923076923 3.000000000000001  L 18.461538461538463 3.000000000000001  C 18.87820512820513 3.000000000000001  19.23878205128205 3.1484374999999973  19.54326923076923 3.4453125  Z " fill-rule="nonzero" fill="#000000" stroke="none" transform="matrix(1 0 0 1 38 354 )" />
  </g>
</svg>